{
    "asset" : {
        "generator" : "Khronos glTF Blender I/O v1.6.16",
        "version" : "2.0"
    },
    "scene" : 0,
    "scenes" : [
        {
            "name" : "Scene",
            "nodes" : [
                0
            ]
        }
    ],
    "nodes" : [
        {
            "mesh" : 0,
            "name" : "Character"
        }
    ],
    "meshes" : [
        {
            "name" : "Plane",
            "primitives" : [
                {
                    "attributes" : {
                        "POSITION" : 0,
                        "NORMAL" : 1,
                        "TEXCOORD_0" : 2
                    },
                    "indices" : 3
                }
            ]
        }
    ],
    "accessors" : [
        {
            "bufferView" : 0,
            "componentType" : 5126,
            "count" : 561,
            "max" : [
                0.48875173926353455,
                1.805917739868164,
                0.15701137483119965
            ],
            "min" : [
                -4.656612873077393e-10,
                0,
                -0.16167110204696655
            ],
            "type" : "VEC3"
        },
        {
            "bufferView" : 1,
            "componentType" : 5126,
            "count" : 561,
            "type" : "VEC3"
        },
        {
            "bufferView" : 2,
            "componentType" : 5126,
            "count" : 561,
            "type" : "VEC2"
        },
        {
            "bufferView" : 3,
            "componentType" : 5123,
            "count" : 813,
            "type" : "SCALAR"
        }
    ],
    "bufferViews" : [
        {
            "buffer" : 0,
            "byteLength" : 6732,
            "byteOffset" : 0
        },
        {
            "buffer" : 0,
            "byteLength" : 6732,
            "byteOffset" : 6732
        },
        {
            "buffer" : 0,
            "byteLength" : 4488,
            "byteOffset" : 13464
        },
        {
            "buffer" : 0,
            "byteLength" : 1626,
            "byteOffset" : 17952
        }
    ],
    "buffers" : [
        {
            "byteLength" : 19580,
            "uri" : "data:application/octet-stream;base64,"
        }
    ]
}
